<?xml version="1.0" encoding="utf-8"?>
<svg viewBox="163 136 135 135" xmlns="http://www.w3.org/2000/svg">
  <g transform="matrix(1.0364140272140503, 0, 0, 1.0364140272140503, 223.25997924804688, 189.5552520751953)" id="5vOC-IW61OMOE2W5ETTMk" style="">
    <path style="stroke: rgb(0,0,0); stroke-width: 0; stroke-dasharray: none; stroke-linecap: butt; stroke-dashoffset: 0; stroke-linejoin: miter; stroke-miterlimit: 4; fill: rgb(255,89,89); fill-rule: nonzero; opacity: 1;" transform=" translate(0, 0)" d="M -41.73643 4.67598 L -20.86491 29.46058 L 23.94837 19.70954 L 41.73644 -7.88382 L 6.520990000000005 -29.46058 L -23.769469999999995 -29.46058 z" stroke-linecap="round"/>
  </g>
  <g transform="matrix(1.0364140272140503, 0, 0, 1.0364140272140503, 193.87759399414062, 173.4254150390625)" id="FcNrzdrZuCBp_wJnahC6V" style="">
    <path style="stroke: rgb(126,47,173); stroke-width: 0; stroke-dasharray: none; stroke-linecap: butt; stroke-dashoffset: 0; stroke-linejoin: miter; stroke-miterlimit: 4; fill: rgb(255,120,120); fill-rule: nonzero; opacity: 1;" transform=" translate(0, 0)" d="M 0 -27.08559 C 14.95125 -27.08559 27.08559 -14.95125 27.08559 0 C 27.08559 14.95125 14.95125 27.08559 0 27.08559 C -14.95125 27.08559 -27.08559 14.95125 -27.08559 0 C -27.08559 -14.95125 -14.95125 -27.08559 0 -27.08559 z" stroke-linecap="round"/>
  </g>
  <g transform="matrix(1.0364140272140503, 0, 0, 1.0364140272140503, 253.8675537109375, 166.32962036132812)" id="fHjpB1nK1d5RBUVIb_mwp" style="">
    <path style="stroke: rgb(120,115,146); stroke-width: 0; stroke-dasharray: none; stroke-linecap: butt; stroke-dashoffset: 0; stroke-linejoin: miter; stroke-miterlimit: 4; fill: rgb(255,120,120); fill-rule: nonzero; opacity: 1;" transform=" translate(-27.0855904659, -27.0855904659)" d="M 27.085590465872155 0 C 42.03683640303359 0 54.17118093174431 12.134344528710724 54.17118093174431 27.085590465872155 C 54.17118093174431 42.03683640303359 42.03683640303359 54.17118093174431 27.085590465872155 54.17118093174431 C 12.134344528710724 54.17118093174431 0 42.03683640303359 0 27.085590465872155 C 0 12.134344528710724 12.134344528710724 0 27.085590465872155 0 Z" stroke-linecap="round"/>
  </g>
  <g transform="matrix(0.46698799729347223, 0, 0, 0.46698799729347223, 193.87759399414062, 173.4254150390625)" id="RbrjHxBFLh0z_UKzo3j36" style="">
    <path style="stroke: rgb(164,239,204); stroke-width: 0; stroke-dasharray: none; stroke-linecap: butt; stroke-dashoffset: 0; stroke-linejoin: miter; stroke-miterlimit: 4; fill: rgb(255,184,184); fill-rule: nonzero; opacity: 1;" transform=" translate(0, 0)" d="M 0 -27.08559 C 14.95125 -27.08559 27.08559 -14.95125 27.08559 0 C 27.08559 14.95125 14.95125 27.08559 0 27.08559 C -14.95125 27.08559 -27.08559 14.95125 -27.08559 0 C -27.08559 -14.95125 -14.95125 -27.08559 0 -27.08559 z" stroke-linecap="round"/>
  </g>
  <g transform="matrix(0.46698799729347223, 0, 0, 0.46698799729347223, 253.8675537109375, 166.32962036132812)" id="Bzx03qWsp5-p50D___wb_" style="">
    <path style="stroke: rgb(164,239,204); stroke-width: 0; stroke-dasharray: none; stroke-linecap: butt; stroke-dashoffset: 0; stroke-linejoin: miter; stroke-miterlimit: 4; fill: rgb(255,184,184); fill-rule: nonzero; opacity: 1;" transform=" translate(0, 0)" d="M 0 -27.08559 C 14.95125 -27.08559 27.08559 -14.95125 27.08559 0 C 27.08559 14.95125 14.95125 27.08559 0 27.08559 C -14.95125 27.08559 -27.08559 14.95125 -27.08559 0 C -27.08559 -14.95125 -14.95125 -27.08559 0 -27.08559 z" stroke-linecap="round"/>
  </g>
  <g transform="matrix(0, -0.4410429894924163, 0.4410429894924163, 0, 268.9760437011719, 226.1890869140625)" id="i4lrDfEnGyNMYsA9581ya" style="">
    <path style="stroke: none; stroke-width: 1; stroke-dasharray: none; stroke-linecap: butt; stroke-dashoffset: 0; stroke-linejoin: miter; stroke-miterlimit: 4; fill: rgb(255,89,89); fill-rule: nonzero; opacity: 1;" transform=" translate(-40, -40)" d="M 60 40 L 80 80 L 40 80 L 0 80 L 20 40 L 40 0 L 60 40 z" stroke-linecap="round"/>
  </g>
  <g transform="matrix(0.1986109912395477, 0, 0, 0.32843202352523804, 263.5965270996094, 226.1890869140625)" id="srKoOPGeUomH2XN-bsSJc" style="">
    <path style="stroke: rgb(160,166,62); stroke-width: 0; stroke-dasharray: none; stroke-linecap: butt; stroke-dashoffset: 0; stroke-linejoin: miter; stroke-miterlimit: 4; fill: rgb(255,89,89); fill-rule: nonzero; opacity: 1;" transform=" translate(0, 0)" d="M -27.08559 -27.08559 L 27.08559 -27.08559 L 27.08559 27.08559 L -27.08559 27.08559 z" stroke-linecap="round"/>
  </g>
  <g transform="matrix(0.23245300352573392, 0, 0, 0.24459600448608396, 189.03021240234375, 231.56234741210938)" id="nM4iRLQ1AGK_NxH14WRfC" style="">
    <path style="stroke: rgb(160,166,62); stroke-width: 0; stroke-dasharray: none; stroke-linecap: butt; stroke-dashoffset: 0; stroke-linejoin: miter; stroke-miterlimit: 4; fill: rgb(255,89,89); fill-rule: nonzero; opacity: 1;" transform=" translate(0, 0)" d="M -27.08559 -27.08559 L 27.08559 -27.08559 L 27.08559 27.08559 L -27.08559 27.08559 z" stroke-linecap="round"/>
  </g>
  <g transform="matrix(1.2105679512023926, 0, 0, 0.8732939958572387, 226.66651916503906, 223.74729919433594)" id="oggrfvMMjAKTTwpYE3Sir" style="">
    <path style="stroke: rgb(172,27,114); stroke-width: 0; stroke-dasharray: none; stroke-linecap: butt; stroke-dashoffset: 0; stroke-linejoin: miter; stroke-miterlimit: 4; fill: rgb(255,120,120); fill-rule: nonzero; opacity: 1;" transform=" translate(0, 0)" d="M -27.08559 -12.231 C -27.08559 -20.43496 -22.28788 -27.08559 -16.36961 -27.08559 L 16.36961 -27.08559 L 16.36961 -27.08559 C 22.28788 -27.08559 27.085590000000003 -20.43496 27.085590000000003 -12.231 L 27.085590000000003 12.231 L 27.085590000000003 12.231 C 27.085590000000003 20.43496 22.28788 27.08559 16.36961 27.08559 L -16.36961 27.08559 L -16.36961 27.08559 C -22.28788 27.08559 -27.085590000000003 20.43496 -27.085590000000003 12.231 z" stroke-linecap="round"/>
  </g>
  <g transform="matrix(0.2816050052642822, 0, 0, 0.5594779849052429, 180.00376892089844, 231.56234741210938)" id="JntIhKVgEU8Wo9f-A5B5m" style="">
    <path style="stroke: rgb(0,0,0); stroke-width: 0; stroke-dasharray: none; stroke-linecap: butt; stroke-dashoffset: 0; stroke-linejoin: miter; stroke-miterlimit: 4; fill: rgb(255,89,89); fill-rule: nonzero; opacity: 1;" transform=" translate(0, 0)" d="M -13.91133 -18.43043 L 5.786200000000001 -18.43043 C 5.786200000000001 -18.43043 13.411660000000001 -19.92736 13.75759 -10.459040000000002 C 14.10352 -0.9907200000000014 13.75759 10.326549999999997 13.75759 10.326549999999997 C 13.75759 10.326549999999997 15.07338 18.88966 5.7862 18.504199999999997 C -3.5009799999999993 18.11874 -13.91133 18.504199999999997 -13.91133 18.504199999999997 z" stroke-linecap="round"/>
  </g>
  <g transform="matrix(0.4552859961986541, 0, 0, 1.7219189405441282, 291.5611572265625, 226.1890869140625)" id="fOkSKFeN9CaHlhH0GZQ3V" style="">
    <path style="stroke: rgb(240,101,55); stroke-width: 0; stroke-dasharray: none; stroke-linecap: butt; stroke-dashoffset: 0; stroke-linejoin: miter; stroke-miterlimit: 4; fill: rgb(255,89,89); fill-rule: nonzero; opacity: 1;" transform=" translate(0, 0)" d="M -10.37344 -10.37344 L 10.37345 -10.37344 L 10.37345 10.37345 L -10.37344 10.37345 z" stroke-linecap="round"/>
  </g>
  <path style="stroke: rgb(0, 0, 0); stroke-width: 0px; fill: rgb(255, 255, 255);" d="M 165.002 217.742 L 184.413 268.456 L 201.745 268.455 L 222.558 218.444 L 208.142 218.238 L 193.092 248.796 C 182.411 226.571 179.637 217.478 179.637 217.478 L 165.002 217.742 Z" transform="matrix(0.9999999999999999, 0, 0, 0.9999999999999999, -7.105427357601002e-15, 0)"/>
</svg>