<?xml version="1.0" encoding="utf-8"?>
<svg viewBox="0 0 500 500" xmlns="http://www.w3.org/2000/svg">
  <g transform="matrix(3.4403090476989746, 0, 0, 3.4403090476989746, 252.2608337402345, 176.31553649902344)" id="5vOC-IW61OMOE2W5ETTMk" style="">
    <path style="stroke: rgb(0, 0, 0); stroke-width: 0; stroke-dasharray: none; stroke-linecap: butt; stroke-dashoffset: 0; stroke-linejoin: miter; stroke-miterlimit: 4; fill-rule: nonzero; opacity: 1; fill: rgb(133, 133, 133);" transform=" translate(0, 0)" d="M -41.73643 4.67598 L -20.86491 29.46058 L 23.94837 19.70954 L 41.73644 -7.88382 L 6.520990000000005 -29.46058 L -23.769469999999995 -29.46058 z" stroke-linecap="round"/>
  </g>
  <g transform="matrix(3.4403090476989746, 0, 0, 3.4403090476989746, 154.7278747558595, 122.77356719970703)" id="FcNrzdrZuCBp_wJnahC6V" style="">
    <path style="stroke: rgb(126, 47, 173); stroke-width: 0; stroke-dasharray: none; stroke-linecap: butt; stroke-dashoffset: 0; stroke-linejoin: miter; stroke-miterlimit: 4; fill-rule: nonzero; opacity: 1; fill: rgb(133, 133, 133);" transform=" translate(0, 0)" d="M 0 -27.08559 C 14.95125 -27.08559 27.08559 -14.95125 27.08559 0 C 27.08559 14.95125 14.95125 27.08559 0 27.08559 C -14.95125 27.08559 -27.08559 14.95125 -27.08559 0 C -27.08559 -14.95125 -14.95125 -27.08559 0 -27.08559 z" stroke-linecap="round"/>
  </g>
  <g transform="matrix(3.4403090476989746, 0, 0, 3.4403090476989746, 353.86065673828136, 99.21955871582031)" id="fHjpB1nK1d5RBUVIb_mwp" style="">
    <path style="stroke: rgb(120, 115, 146); stroke-width: 0; stroke-dasharray: none; stroke-linecap: butt; stroke-dashoffset: 0; stroke-linejoin: miter; stroke-miterlimit: 4; fill-rule: nonzero; opacity: 1; fill: rgb(133, 133, 133);" transform=" translate(-27.0855904659, -27.0855904659)" d="M 27.085590465872155 0 C 42.03683640303359 0 54.17118093174431 12.134344528710724 54.17118093174431 27.085590465872155 C 54.17118093174431 42.03683640303359 42.03683640303359 54.17118093174431 27.085590465872155 54.17118093174431 C 12.134344528710724 54.17118093174431 0 42.03683640303359 0 27.085590465872155 C 0 12.134344528710724 12.134344528710724 0 27.085590465872155 0 Z" stroke-linecap="round"/>
  </g>
  <g transform="matrix(1.550137996673584, 0, 0, 1.550137996673584, 154.7278747558595, 122.77356719970703)" id="RbrjHxBFLh0z_UKzo3j36" style="">
    <path style="stroke: rgb(164, 239, 204); stroke-width: 0; stroke-dasharray: none; stroke-linecap: butt; stroke-dashoffset: 0; stroke-linejoin: miter; stroke-miterlimit: 4; fill-rule: nonzero; opacity: 1; fill: rgb(133, 133, 133);" transform=" translate(0, 0)" d="M 0 -27.08559 C 14.95125 -27.08559 27.08559 -14.95125 27.08559 0 C 27.08559 14.95125 14.95125 27.08559 0 27.08559 C -14.95125 27.08559 -27.08559 14.95125 -27.08559 0 C -27.08559 -14.95125 -14.95125 -27.08559 0 -27.08559 z" stroke-linecap="round"/>
  </g>
  <g transform="matrix(1.550137996673584, 0, 0, 1.550137996673584, 353.86065673828136, 99.21955871582031)" id="Bzx03qWsp5-p50D___wb_" style="">
    <path style="stroke: rgb(164, 239, 204); stroke-width: 0; stroke-dasharray: none; stroke-linecap: butt; stroke-dashoffset: 0; stroke-linejoin: miter; stroke-miterlimit: 4; fill-rule: nonzero; opacity: 1; fill: rgb(133, 133, 133);" transform=" translate(0, 0)" d="M 0 -27.08559 C 14.95125 -27.08559 27.08559 -14.95125 27.08559 0 C 27.08559 14.95125 14.95125 27.08559 0 27.08559 C -14.95125 27.08559 -27.08559 14.95125 -27.08559 0 C -27.08559 -14.95125 -14.95125 -27.08559 0 -27.08559 z" stroke-linecap="round"/>
  </g>
  <g transform="matrix(0, -1.4640140533447266, 1.4640140533447266, 0, 404.0123291015626, 297.9191589355469)" id="i4lrDfEnGyNMYsA9581ya" style="">
    <path style="stroke: none; stroke-width: 1; stroke-dasharray: none; stroke-linecap: butt; stroke-dashoffset: 0; stroke-linejoin: miter; stroke-miterlimit: 4; fill-rule: nonzero; opacity: 1; fill: rgb(133, 133, 133);" transform=" translate(-40, -40)" d="M 60 40 L 80 80 L 40 80 L 0 80 L 20 40 L 40 0 L 60 40 z" stroke-linecap="round"/>
  </g>
  <g transform="matrix(0.6592769622802734, 0, 0, 1.0902090072631836, 386.15545654296886, 297.9191589355469)" id="srKoOPGeUomH2XN-bsSJc" style="">
    <path style="stroke: rgb(160, 166, 62); stroke-width: 0; stroke-dasharray: none; stroke-linecap: butt; stroke-dashoffset: 0; stroke-linejoin: miter; stroke-miterlimit: 4; fill-rule: nonzero; opacity: 1; fill: rgb(133, 133, 133);" transform=" translate(0, 0)" d="M -27.08559 -27.08559 L 27.08559 -27.08559 L 27.08559 27.08559 L -27.08559 27.08559 z" stroke-linecap="round"/>
  </g>
  <g transform="matrix(0.7716129422187805, 0, 0, 0.8119199872016907, 138.6373291015626, 315.75531005859375)" id="nM4iRLQ1AGK_NxH14WRfC" style="">
    <path style="stroke: rgb(160, 166, 62); stroke-width: 0; stroke-dasharray: none; stroke-linecap: butt; stroke-dashoffset: 0; stroke-linejoin: miter; stroke-miterlimit: 4; fill-rule: nonzero; opacity: 1; fill: rgb(133, 133, 133);" transform=" translate(0, 0)" d="M -27.08559 -27.08559 L 27.08559 -27.08559 L 27.08559 27.08559 L -27.08559 27.08559 z" stroke-linecap="round"/>
  </g>
  <g transform="matrix(4.018401145935059, 0, 0, 2.8988420963287354, 263.5686035156251, 289.81378173828125)" id="oggrfvMMjAKTTwpYE3Sir" style="">
    <path style="stroke: rgb(172, 27, 114); stroke-width: 0; stroke-dasharray: none; stroke-linecap: butt; stroke-dashoffset: 0; stroke-linejoin: miter; stroke-miterlimit: 4; fill-rule: nonzero; opacity: 1; fill: rgb(133, 133, 133);" transform=" translate(0, 0)" d="M -27.08559 -12.231 C -27.08559 -20.43496 -22.28788 -27.08559 -16.36961 -27.08559 L 16.36961 -27.08559 L 16.36961 -27.08559 C 22.28788 -27.08559 27.085590000000003 -20.43496 27.085590000000003 -12.231 L 27.085590000000003 12.231 L 27.085590000000003 12.231 C 27.085590000000003 20.43496 22.28788 27.08559 16.36961 27.08559 L -16.36961 27.08559 L -16.36961 27.08559 C -22.28788 27.08559 -27.085590000000003 20.43496 -27.085590000000003 12.231 z" stroke-linecap="round"/>
  </g>
  <g transform="matrix(0.9347700476646423, 0, 0, 1.8571510314941406, 108.6746292114259, 315.75531005859375)" id="JntIhKVgEU8Wo9f-A5B5m" style="">
    <path style="stroke: rgb(0, 0, 0); stroke-width: 0; stroke-dasharray: none; stroke-linecap: butt; stroke-dashoffset: 0; stroke-linejoin: miter; stroke-miterlimit: 4; fill-rule: nonzero; opacity: 1; fill: rgb(133, 133, 133);" transform=" translate(0, 0)" d="M -13.91133 -18.43043 L 5.786200000000001 -18.43043 C 5.786200000000001 -18.43043 13.411660000000001 -19.92736 13.75759 -10.459040000000002 C 14.10352 -0.9907200000000014 13.75759 10.326549999999997 13.75759 10.326549999999997 C 13.75759 10.326549999999997 15.07338 18.88966 5.7862 18.504199999999997 C -3.5009799999999993 18.11874 -13.91133 18.504199999999997 -13.91133 18.504199999999997 z" stroke-linecap="round"/>
  </g>
  <g transform="matrix(1.511293888092041, 0, 0, 5.7157979011535645, 478.9821777343751, 297.9191589355469)" id="fOkSKFeN9CaHlhH0GZQ3V" style="">
    <path style="stroke: rgb(240, 101, 55); stroke-width: 0; stroke-dasharray: none; stroke-linecap: butt; stroke-dashoffset: 0; stroke-linejoin: miter; stroke-miterlimit: 4; fill-rule: nonzero; opacity: 1; fill: rgb(133, 133, 133);" transform=" translate(0, 0)" d="M -10.37344 -10.37344 L 10.37345 -10.37344 L 10.37345 10.37345 L -10.37344 10.37345 z" stroke-linecap="round"/>
  </g>
  <g transform="matrix(0.5703954696655273, 0, 0, 0.5703954696655273, 165.6932373046876, 251.38720703125)" id="KJO3mnMYC-jbjXWu3Xqk3">
    <path style="stroke: rgb(255,255,255); stroke-width: 1; stroke-dasharray: none; stroke-linecap: butt; stroke-dashoffset: 0; stroke-linejoin: miter; stroke-miterlimit: 4; fill: rgb(255,255,255); fill-opacity: 0; fill-rule: nonzero; opacity: 1;" transform=" translate(0, 0)" d="M 0 0" stroke-linecap="round"/>
  </g>
  <path style="fill: rgb(216, 216, 216); stroke-width: 50px; stroke: rgb(255, 255, 255);" d="M 157.896 194.9 L 80.539 487.432"/>
  <path style="fill: rgb(216, 216, 216); stroke-width: 50px; stroke: rgb(255, 255, 255);" d="M 279.71 193.122 L 201.464 487.432"/>
  <path style="fill: rgb(216, 216, 216); stroke-width: 50px; stroke: rgb(255, 255, 255);" d="M 36.971 282.927 L 348.174 287.372"/>
  <path style="fill: rgb(216, 216, 216); stroke-width: 50px; stroke: rgb(255, 255, 255);" d="M 12.074 396.738 L 321.5 400.295"/>
</svg>