<?xml version="1.0" encoding="utf-8"?>
<svg viewBox="163 136 135 135" xmlns="http://www.w3.org/2000/svg">
  <g transform="matrix(0.9999999999999999, 0, 0, 0.9999999999999999, 225.82565307617188, 186.1156768798828)" id="5vOC-IW61OMOE2W5ETTMk">
    <path style="stroke: rgb(0,0,0); stroke-width: 0; stroke-dasharray: none; stroke-linecap: butt; stroke-dashoffset: 0; stroke-linejoin: miter; stroke-miterlimit: 4; fill: rgb(255,89,89); fill-rule: nonzero; opacity: 1;" transform=" translate(0, 0)" d="M -41.73643 4.67598 L -20.86491 29.46058 L 23.94837 19.70954 L 41.73644 -7.88382 L 6.520990000000005 -29.46058 L -23.769469999999995 -29.46058 z" stroke-linecap="round"/>
  </g>
  <g transform="matrix(0.9999999999999999, 0, 0, 0.9999999999999999, 197.47560119628906, 170.55255126953125)" id="FcNrzdrZuCBp_wJnahC6V">
    <path style="stroke: rgb(126,47,173); stroke-width: 0; stroke-dasharray: none; stroke-linecap: butt; stroke-dashoffset: 0; stroke-linejoin: miter; stroke-miterlimit: 4; fill: rgb(255,120,120); fill-rule: nonzero; opacity: 1;" transform=" translate(0, 0)" d="M 0 -27.08559 C 14.95125 -27.08559 27.08559 -14.95125 27.08559 0 C 27.08559 14.95125 14.95125 27.08559 0 27.08559 C -14.95125 27.08559 -27.08559 14.95125 -27.08559 0 C -27.08559 -14.95125 -14.95125 -27.08559 0 -27.08559 z" stroke-linecap="round"/>
  </g>
  <g transform="matrix(0.9999999999999999, 0, 0, 0.9999999999999999, 255.3578338623047, 163.70606994628906)" id="fHjpB1nK1d5RBUVIb_mwp">
    <path style="stroke: rgb(120,115,146); stroke-width: 0; stroke-dasharray: none; stroke-linecap: butt; stroke-dashoffset: 0; stroke-linejoin: miter; stroke-miterlimit: 4; fill: rgb(255,120,120); fill-rule: nonzero; opacity: 1;" transform=" translate(-27.0855904659, -27.0855904659)" d="M 27.085590465872155 0 C 42.03683640303359 0 54.17118093174431 12.134344528710724 54.17118093174431 27.085590465872155 C 54.17118093174431 42.03683640303359 42.03683640303359 54.17118093174431 27.085590465872155 54.17118093174431 C 12.134344528710724 54.17118093174431 0 42.03683640303359 0 27.085590465872155 C 0 12.134344528710724 12.134344528710724 0 27.085590465872155 0 Z" stroke-linecap="round"/>
  </g>
  <g transform="matrix(0.4505810141563415, 0, 0, 0.4505810141563415, 197.47560119628906, 170.55255126953125)" id="RbrjHxBFLh0z_UKzo3j36">
    <path style="stroke: rgb(164,239,204); stroke-width: 0; stroke-dasharray: none; stroke-linecap: butt; stroke-dashoffset: 0; stroke-linejoin: miter; stroke-miterlimit: 4; fill: rgb(255,184,184); fill-rule: nonzero; opacity: 1;" transform=" translate(0, 0)" d="M 0 -27.08559 C 14.95125 -27.08559 27.08559 -14.95125 27.08559 0 C 27.08559 14.95125 14.95125 27.08559 0 27.08559 C -14.95125 27.08559 -27.08559 14.95125 -27.08559 0 C -27.08559 -14.95125 -14.95125 -27.08559 0 -27.08559 z" stroke-linecap="round"/>
  </g>
  <g transform="matrix(0.4505810141563415, 0, 0, 0.4505810141563415, 255.3578338623047, 163.70606994628906)" id="Bzx03qWsp5-p50D___wb_">
    <path style="stroke: rgb(164,239,204); stroke-width: 0; stroke-dasharray: none; stroke-linecap: butt; stroke-dashoffset: 0; stroke-linejoin: miter; stroke-miterlimit: 4; fill: rgb(255,184,184); fill-rule: nonzero; opacity: 1;" transform=" translate(0, 0)" d="M 0 -27.08559 C 14.95125 -27.08559 27.08559 -14.95125 27.08559 0 C 27.08559 14.95125 14.95125 27.08559 0 27.08559 C -14.95125 27.08559 -27.08559 14.95125 -27.08559 0 C -27.08559 -14.95125 -14.95125 -27.08559 0 -27.08559 z" stroke-linecap="round"/>
  </g>
  <g transform="matrix(0, -0.42554700374603266, 0.42554700374603266, 0, 269.93548583984375, 221.46240234375)" id="i4lrDfEnGyNMYsA9581ya">
    <path style="stroke: none; stroke-width: 1; stroke-dasharray: none; stroke-linecap: butt; stroke-dashoffset: 0; stroke-linejoin: miter; stroke-miterlimit: 4; fill: rgb(255,89,89); fill-rule: nonzero; opacity: 1;" transform=" translate(-40, -40)" d="M 60 40 L 80 80 L 40 80 L 0 80 L 20 40 L 40 0 L 60 40 z" stroke-linecap="round"/>
  </g>
  <g transform="matrix(0.19163298606872556, 0, 0, 0.3168930411338806, 264.7449951171875, 221.46240234375)" id="srKoOPGeUomH2XN-bsSJc">
    <path style="stroke: rgb(160,166,62); stroke-width: 0; stroke-dasharray: none; stroke-linecap: butt; stroke-dashoffset: 0; stroke-linejoin: miter; stroke-miterlimit: 4; fill: rgb(255,89,89); fill-rule: nonzero; opacity: 1;" transform=" translate(0, 0)" d="M -27.08559 -27.08559 L 27.08559 -27.08559 L 27.08559 27.08559 L -27.08559 27.08559 z" stroke-linecap="round"/>
  </g>
  <g transform="matrix(0.22428600490093228, 0, 0, 0.23600199818611142, 192.7985382080078, 226.64686584472656)" id="nM4iRLQ1AGK_NxH14WRfC">
    <path style="stroke: rgb(160,166,62); stroke-width: 0; stroke-dasharray: none; stroke-linecap: butt; stroke-dashoffset: 0; stroke-linejoin: miter; stroke-miterlimit: 4; fill: rgb(255,89,89); fill-rule: nonzero; opacity: 1;" transform=" translate(0, 0)" d="M -27.08559 -27.08559 L 27.08559 -27.08559 L 27.08559 27.08559 L -27.08559 27.08559 z" stroke-linecap="round"/>
  </g>
  <g transform="matrix(1.1680350303649902, 0, 0, 0.842611014842987, 229.1125030517578, 219.1063995361328)" id="oggrfvMMjAKTTwpYE3Sir">
    <path style="stroke: rgb(172,27,114); stroke-width: 0; stroke-dasharray: none; stroke-linecap: butt; stroke-dashoffset: 0; stroke-linejoin: miter; stroke-miterlimit: 4; fill: rgb(255,120,120); fill-rule: nonzero; opacity: 1;" transform=" translate(0, 0)" d="M -27.08559 -12.231 C -27.08559 -20.43496 -22.28788 -27.08559 -16.36961 -27.08559 L 16.36961 -27.08559 L 16.36961 -27.08559 C 22.28788 -27.08559 27.085590000000003 -20.43496 27.085590000000003 -12.231 L 27.085590000000003 12.231 L 27.085590000000003 12.231 C 27.085590000000003 20.43496 22.28788 27.08559 16.36961 27.08559 L -16.36961 27.08559 L -16.36961 27.08559 C -22.28788 27.08559 -27.085590000000003 20.43496 -27.085590000000003 12.231 z" stroke-linecap="round"/>
  </g>
  <g transform="matrix(0.2717110216617584, 0, 0, 0.5398210287094116, 184.0892333984375, 226.64686584472656)" id="JntIhKVgEU8Wo9f-A5B5m">
    <path style="stroke: rgb(0,0,0); stroke-width: 0; stroke-dasharray: none; stroke-linecap: butt; stroke-dashoffset: 0; stroke-linejoin: miter; stroke-miterlimit: 4; fill: rgb(255,89,89); fill-rule: nonzero; opacity: 1;" transform=" translate(0, 0)" d="M -13.91133 -18.43043 L 5.786200000000001 -18.43043 C 5.786200000000001 -18.43043 13.411660000000001 -19.92736 13.75759 -10.459040000000002 C 14.10352 -0.9907200000000014 13.75759 10.326549999999997 13.75759 10.326549999999997 C 13.75759 10.326549999999997 15.07338 18.88966 5.7862 18.504199999999997 C -3.5009799999999993 18.11874 -13.91133 18.504199999999997 -13.91133 18.504199999999997 z" stroke-linecap="round"/>
  </g>
  <g transform="matrix(0.4392900168895721, 0, 0, 1.6614201068878172, 291.7270812988281, 221.46240234375)" id="fOkSKFeN9CaHlhH0GZQ3V">
    <path style="stroke: rgb(240,101,55); stroke-width: 0; stroke-dasharray: none; stroke-linecap: butt; stroke-dashoffset: 0; stroke-linejoin: miter; stroke-miterlimit: 4; fill: rgb(255,89,89); fill-rule: nonzero; opacity: 1;" transform=" translate(0, 0)" d="M -10.37344 -10.37344 L 10.37345 -10.37344 L 10.37345 10.37345 L -10.37344 10.37345 z" stroke-linecap="round"/>
  </g>
  <path style="fill: rgb(255, 82, 82); stroke: rgb(0, 0, 0); stroke-width: 4px;" d="M 166.639 200.734 L 192.309 267.801 L 215.23 267.8 L 242.754 201.663 L 223.689 201.391 L 203.787 241.801 C 189.662 212.41 185.993 200.385 185.993 200.385 L 166.639 200.734 Z" transform="matrix(0.9999999999999999, 0, 0, 0.9999999999999999, -7.105427357601002e-15, 0)"/>
</svg>