<?xml version="1.0" encoding="utf-8"?>
<svg viewBox="218 136 160 160" style="" xmlns="http://www.w3.org/2000/svg">
  <g transform="matrix(1.1037650108337402, 0, 0, 1.1037650108337402, 299.07073974609375, 194.5028076171875)" id="5vOC-IW61OMOE2W5ETTMk" style="">
    <path style="stroke: rgb(0, 0, 0); stroke-width: 0; stroke-dasharray: none; stroke-linecap: butt; stroke-dashoffset: 0; stroke-linejoin: miter; stroke-miterlimit: 4; fill-rule: nonzero; opacity: 1; fill: rgb(138, 138, 138);" transform=" translate(0, 0)" d="M -41.73643 4.67598 L -20.86491 29.46058 L 23.94837 19.70954 L 41.73644 -7.88382 L 6.520990000000005 -29.46058 L -23.769469999999995 -29.46058 z" stroke-linecap="round"/>
  </g>
  <g transform="matrix(1.1037650108337402, 0, 0, 1.1037650108337402, 267.7789306640625, 177.32476806640625)" id="FcNrzdrZuCBp_wJnahC6V" style="">
    <path style="stroke: rgb(126, 47, 173); stroke-width: 0; stroke-dasharray: none; stroke-linecap: butt; stroke-dashoffset: 0; stroke-linejoin: miter; stroke-miterlimit: 4; fill-rule: nonzero; opacity: 1; fill: rgb(138, 138, 138);" transform=" translate(0, 0)" d="M 0 -27.08559 C 14.95125 -27.08559 27.08559 -14.95125 27.08559 0 C 27.08559 14.95125 14.95125 27.08559 0 27.08559 C -14.95125 27.08559 -27.08559 14.95125 -27.08559 0 C -27.08559 -14.95125 -14.95125 -27.08559 0 -27.08559 z" stroke-linecap="round"/>
  </g>
  <g transform="matrix(1.1037650108337402, 0, 0, 1.1037650108337402, 331.6673583984375, 169.76788330078125)" id="fHjpB1nK1d5RBUVIb_mwp" style="">
    <path style="stroke: rgb(120, 115, 146); stroke-width: 0; stroke-dasharray: none; stroke-linecap: butt; stroke-dashoffset: 0; stroke-linejoin: miter; stroke-miterlimit: 4; fill-rule: nonzero; opacity: 1; fill: rgb(138, 138, 138);" transform=" translate(-27.0855904659, -27.0855904659)" d="M 27.085590465872155 0 C 42.03683640303359 0 54.17118093174431 12.134344528710724 54.17118093174431 27.085590465872155 C 54.17118093174431 42.03683640303359 42.03683640303359 54.17118093174431 27.085590465872155 54.17118093174431 C 12.134344528710724 54.17118093174431 0 42.03683640303359 0 27.085590465872155 C 0 12.134344528710724 12.134344528710724 0 27.085590465872155 0 Z" stroke-linecap="round"/>
  </g>
  <g transform="matrix(0.49733501672744745, 0, 0, 0.49733501672744745, 267.7789306640625, 177.32476806640625)" id="RbrjHxBFLh0z_UKzo3j36" style="">
    <path style="stroke: rgb(164, 239, 204); stroke-width: 0; stroke-dasharray: none; stroke-linecap: butt; stroke-dashoffset: 0; stroke-linejoin: miter; stroke-miterlimit: 4; fill-rule: nonzero; opacity: 1; fill: rgb(138, 138, 138);" transform=" translate(0, 0)" d="M 0 -27.08559 C 14.95125 -27.08559 27.08559 -14.95125 27.08559 0 C 27.08559 14.95125 14.95125 27.08559 0 27.08559 C -14.95125 27.08559 -27.08559 14.95125 -27.08559 0 C -27.08559 -14.95125 -14.95125 -27.08559 0 -27.08559 z" stroke-linecap="round"/>
  </g>
  <g transform="matrix(0.49733501672744745, 0, 0, 0.49733501672744745, 331.6673583984375, 169.76788330078125)" id="Bzx03qWsp5-p50D___wb_" style="">
    <path style="stroke: rgb(164, 239, 204); stroke-width: 0; stroke-dasharray: none; stroke-linecap: butt; stroke-dashoffset: 0; stroke-linejoin: miter; stroke-miterlimit: 4; fill-rule: nonzero; opacity: 1; fill: rgb(138, 138, 138);" transform=" translate(0, 0)" d="M 0 -27.08559 C 14.95125 -27.08559 27.08559 -14.95125 27.08559 0 C 27.08559 14.95125 14.95125 27.08559 0 27.08559 C -14.95125 27.08559 -27.08559 14.95125 -27.08559 0 C -27.08559 -14.95125 -14.95125 -27.08559 0 -27.08559 z" stroke-linecap="round"/>
  </g>
  <g transform="matrix(0, -0.46970400214195246, 0.46970400214195246, 0, 347.7576599121094, 233.51730346679688)" id="i4lrDfEnGyNMYsA9581ya" style="">
    <path style="stroke: none; stroke-width: 1; stroke-dasharray: none; stroke-linecap: butt; stroke-dashoffset: 0; stroke-linejoin: miter; stroke-miterlimit: 4; fill-rule: nonzero; opacity: 1; fill: rgb(138, 138, 138);" transform=" translate(-40, -40)" d="M 60 40 L 80 80 L 40 80 L 0 80 L 20 40 L 40 0 L 60 40 z" stroke-linecap="round"/>
  </g>
  <g transform="matrix(0.2115170061588287, 0, 0, 0.34977599978446955, 342.028564453125, 233.51730346679688)" id="srKoOPGeUomH2XN-bsSJc" style="">
    <path style="stroke: rgb(160, 166, 62); stroke-width: 0; stroke-dasharray: none; stroke-linecap: butt; stroke-dashoffset: 0; stroke-linejoin: miter; stroke-miterlimit: 4; fill-rule: nonzero; opacity: 1; fill: rgb(138, 138, 138);" transform=" translate(0, 0)" d="M -27.08559 -27.08559 L 27.08559 -27.08559 L 27.08559 27.08559 L -27.08559 27.08559 z" stroke-linecap="round"/>
  </g>
  <g transform="matrix(0.2475589960813522, 0, 0, 0.2604910135269165, 262.6165466308594, 239.23973083496094)" id="nM4iRLQ1AGK_NxH14WRfC" style="">
    <path style="stroke: rgb(160, 166, 62); stroke-width: 0; stroke-dasharray: none; stroke-linecap: butt; stroke-dashoffset: 0; stroke-linejoin: miter; stroke-miterlimit: 4; fill-rule: nonzero; opacity: 1; fill: rgb(138, 138, 138);" transform=" translate(0, 0)" d="M -27.08559 -27.08559 L 27.08559 -27.08559 L 27.08559 27.08559 L -27.08559 27.08559 z" stroke-linecap="round"/>
  </g>
  <g transform="matrix(1.289236068725586, 0, 0, 0.9300450682640075, 302.69866943359375, 230.9168243408203)" id="oggrfvMMjAKTTwpYE3Sir" style="">
    <path style="stroke: rgb(172, 27, 114); stroke-width: 0; stroke-dasharray: none; stroke-linecap: butt; stroke-dashoffset: 0; stroke-linejoin: miter; stroke-miterlimit: 4; fill-rule: nonzero; opacity: 1; fill: rgb(138, 138, 138);" transform=" translate(0, 0)" d="M -27.08559 -12.231 C -27.08559 -20.43496 -22.28788 -27.08559 -16.36961 -27.08559 L 16.36961 -27.08559 L 16.36961 -27.08559 C 22.28788 -27.08559 27.085590000000003 -20.43496 27.085590000000003 -12.231 L 27.085590000000003 12.231 L 27.085590000000003 12.231 C 27.085590000000003 20.43496 22.28788 27.08559 16.36961 27.08559 L -16.36961 27.08559 L -16.36961 27.08559 C -22.28788 27.08559 -27.085590000000003 20.43496 -27.085590000000003 12.231 z" stroke-linecap="round"/>
  </g>
  <g transform="matrix(0.29990601539611816, 0, 0, 0.5958360433578491, 253.00355529785156, 239.23973083496094)" id="JntIhKVgEU8Wo9f-A5B5m" style="">
    <path style="stroke: rgb(0, 0, 0); stroke-width: 0; stroke-dasharray: none; stroke-linecap: butt; stroke-dashoffset: 0; stroke-linejoin: miter; stroke-miterlimit: 4; fill-rule: nonzero; opacity: 1; fill: rgb(138, 138, 138);" transform=" translate(0, 0)" d="M -13.91133 -18.43043 L 5.786200000000001 -18.43043 C 5.786200000000001 -18.43043 13.411660000000001 -19.92736 13.75759 -10.459040000000002 C 14.10352 -0.9907200000000014 13.75759 10.326549999999997 13.75759 10.326549999999997 C 13.75759 10.326549999999997 15.07338 18.88966 5.7862 18.504199999999997 C -3.5009799999999993 18.11874 -13.91133 18.504199999999997 -13.91133 18.504199999999997 z" stroke-linecap="round"/>
  </g>
  <g transform="matrix(0.4848730564117431, 0, 0, 1.8338170051574705, 371.81048583984375, 233.51730346679688)" id="fOkSKFeN9CaHlhH0GZQ3V" style="">
    <path style="stroke: rgb(240, 101, 55); stroke-width: 0; stroke-dasharray: none; stroke-linecap: butt; stroke-dashoffset: 0; stroke-linejoin: miter; stroke-miterlimit: 4; fill-rule: nonzero; opacity: 1; fill: rgb(138, 138, 138);" transform=" translate(0, 0)" d="M -10.37344 -10.37344 L 10.37345 -10.37344 L 10.37345 10.37345 L -10.37344 10.37345 z" stroke-linecap="round"/>
  </g>
  <g transform="matrix(0.9771460890769957, 0.4443700015544891, -0.42821103334426874, 1.1349979639053345, 319.254150390625, 258.955322265625)" id="2iQXf2XecXUakhHSqGfzs" style="">
    <path style="stroke: rgb(255, 255, 255); stroke-dasharray: none; stroke-linecap: butt; stroke-dashoffset: 0; stroke-linejoin: miter; stroke-miterlimit: 4; fill: rgb(255, 0, 0); fill-rule: nonzero; opacity: 1; stroke-width: 0px;" transform=" translate(-40, -40)" d="M 41.17 72.5 L 80 40 L 41.17 7.5 L 41.17 28.105 L 0 28.105 L 0 51.952 L 41.17 51.952 L 41.17 72.5 z" stroke-linecap="round"/>
  </g>
  <g transform="matrix(-0.908850073814392, 0.4133119881153106, -0.4401749968528747, -1.1667089462280273, 254.10552978515625, 257.9584045410156)" id="1DIRNPOmNMuVOWUoGm87O" style="">
    <path style="stroke: rgb(255, 255, 255); stroke-dasharray: none; stroke-linecap: butt; stroke-dashoffset: 0; stroke-linejoin: miter; stroke-miterlimit: 4; fill: rgb(0, 0, 255); fill-rule: nonzero; opacity: 1; stroke-width: 0px;" transform=" translate(-40, -40)" d="M 41.17 72.5 L 80 40 L 41.17 7.5 L 41.17 28.105 L 0 28.105 L 0 51.952 L 41.17 51.952 L 41.17 72.5 z" stroke-linecap="round"/>
  </g>
  <g transform="matrix(0, -1.2563910484313965, 1.1632649898529053, 0, 285.3373718261719, 214.9793701171875)" id="uls2r2ZnUIaW8zdT-BHjY" style="">
    <path style="stroke-dasharray: none; stroke-linecap: butt; stroke-dashoffset: 0; stroke-linejoin: miter; stroke-miterlimit: 4; fill: rgb(0, 255, 0); fill-rule: nonzero; opacity: 1; stroke: rgb(255, 255, 255); stroke-width: 0px;" transform=" translate(-40, -40)" d="M 41.17 72.5 L 80 40 L 41.17 7.5 L 41.17 28.105 L 0 28.105 L 0 51.952 L 41.17 51.952 L 41.17 72.5 z" stroke-linecap="round"/>
  </g>
</svg>