<?xml version="1.0" encoding="utf-8"?>
<svg viewBox="0 0 500 500" xmlns="http://www.w3.org/2000/svg">
  <g transform="matrix(3.9664800167083745, 0, 0, 3.9664800167083745, 221.1155242919922, 254.81878662109378)" id="5vOC-IW61OMOE2W5ETTMk" style="">
    <path style="stroke: rgb(0,0,0); stroke-width: 0; stroke-dasharray: none; stroke-linecap: butt; stroke-dashoffset: 0; stroke-linejoin: miter; stroke-miterlimit: 4; fill: rgb(255,255,255); fill-rule: nonzero; opacity: 1;" transform=" translate(0, 0)" d="M -41.73643 4.67598 L -20.86491 29.46058 L 23.94837 19.70954 L 41.73644 -7.88382 L 6.520990000000005 -29.46058 L -23.769469999999995 -29.46058 z" stroke-linecap="round"/>
  </g>
  <g transform="matrix(3.9664800167083745, 0, 0, 3.9664800167083745, 108.66561889648438, 193.08796691894534)" id="FcNrzdrZuCBp_wJnahC6V" style="">
    <path style="stroke: rgb(126,47,173); stroke-width: 0; stroke-dasharray: none; stroke-linecap: butt; stroke-dashoffset: 0; stroke-linejoin: miter; stroke-miterlimit: 4; fill: rgb(255,255,255); fill-rule: nonzero; opacity: 1;" transform=" translate(0, 0)" d="M 0 -27.08559 C 14.95125 -27.08559 27.08559 -14.95125 27.08559 0 C 27.08559 14.95125 14.95125 27.08559 0 27.08559 C -14.95125 27.08559 -27.08559 14.95125 -27.08559 0 C -27.08559 -14.95125 -14.95125 -27.08559 0 -27.08559 z" stroke-linecap="round"/>
  </g>
  <g transform="matrix(3.9664800167083745, 0, 0, 3.9664800167083745, 338.25433349609375, 165.9315338134766)" id="fHjpB1nK1d5RBUVIb_mwp" style="">
    <path style="stroke: rgb(120,115,146); stroke-width: 0; stroke-dasharray: none; stroke-linecap: butt; stroke-dashoffset: 0; stroke-linejoin: miter; stroke-miterlimit: 4; fill: rgb(255,255,255); fill-rule: nonzero; opacity: 1;" transform=" translate(-27.0855904659, -27.0855904659)" d="M 27.085590465872155 0 C 42.03683640303359 0 54.17118093174431 12.134344528710724 54.17118093174431 27.085590465872155 C 54.17118093174431 42.03683640303359 42.03683640303359 54.17118093174431 27.085590465872155 54.17118093174431 C 12.134344528710724 54.17118093174431 0 42.03683640303359 0 27.085590465872155 C 0 12.134344528710724 12.134344528710724 0 27.085590465872155 0 Z" stroke-linecap="round"/>
  </g>
  <g transform="matrix(1.7872200012207033, 0, 0, 1.7872200012207033, 108.66561889648438, 193.08796691894534)" id="RbrjHxBFLh0z_UKzo3j36" style="">
    <path style="stroke: rgb(164,239,204); stroke-width: 0; stroke-dasharray: none; stroke-linecap: butt; stroke-dashoffset: 0; stroke-linejoin: miter; stroke-miterlimit: 4; fill: rgb(255,255,255); fill-rule: nonzero; opacity: 1;" transform=" translate(0, 0)" d="M 0 -27.08559 C 14.95125 -27.08559 27.08559 -14.95125 27.08559 0 C 27.08559 14.95125 14.95125 27.08559 0 27.08559 C -14.95125 27.08559 -27.08559 14.95125 -27.08559 0 C -27.08559 -14.95125 -14.95125 -27.08559 0 -27.08559 z" stroke-linecap="round"/>
  </g>
  <g transform="matrix(1.7872200012207033, 0, 0, 1.7872200012207033, 338.25433349609375, 165.9315338134766)" id="Bzx03qWsp5-p50D___wb_" style="">
    <path style="stroke: rgb(164,239,204); stroke-width: 0; stroke-dasharray: none; stroke-linecap: butt; stroke-dashoffset: 0; stroke-linejoin: miter; stroke-miterlimit: 4; fill: rgb(255,255,255); fill-rule: nonzero; opacity: 1;" transform=" translate(0, 0)" d="M 0 -27.08559 C 14.95125 -27.08559 27.08559 -14.95125 27.08559 0 C 27.08559 14.95125 14.95125 27.08559 0 27.08559 C -14.95125 27.08559 -27.08559 14.95125 -27.08559 0 C -27.08559 -14.95125 -14.95125 -27.08559 0 -27.08559 z" stroke-linecap="round"/>
  </g>
  <g transform="matrix(0, -1.6879240274429321, 1.6879240274429321, 0, 396.07635498046875, 395.0208740234376)" id="i4lrDfEnGyNMYsA9581ya" style="">
    <path style="stroke: none; stroke-width: 1; stroke-dasharray: none; stroke-linecap: butt; stroke-dashoffset: 0; stroke-linejoin: miter; stroke-miterlimit: 4; fill: rgb(255,255,255); fill-rule: nonzero; opacity: 1;" transform=" translate(-40, -40)" d="M 60 40 L 80 80 L 40 80 L 0 80 L 20 40 L 40 0 L 60 40 z" stroke-linecap="round"/>
  </g>
  <g transform="matrix(0.7601079940795898, 0, 0, 1.2569500207901, 375.4883728027344, 395.0208740234376)" id="srKoOPGeUomH2XN-bsSJc" style="">
    <path style="stroke: rgb(160,166,62); stroke-width: 0; stroke-dasharray: none; stroke-linecap: butt; stroke-dashoffset: 0; stroke-linejoin: miter; stroke-miterlimit: 4; fill: rgb(255,255,255); fill-rule: nonzero; opacity: 1;" transform=" translate(0, 0)" d="M -27.08559 -27.08559 L 27.08559 -27.08559 L 27.08559 27.08559 L -27.08559 27.08559 z" stroke-linecap="round"/>
  </g>
  <g transform="matrix(0.8896260261535646, 0, 0, 0.936097025871277, 90.11414337158203, 415.584930419922)" id="nM4iRLQ1AGK_NxH14WRfC" style="">
    <path style="stroke: rgb(160,166,62); stroke-width: 0; stroke-dasharray: none; stroke-linecap: butt; stroke-dashoffset: 0; stroke-linejoin: miter; stroke-miterlimit: 4; fill: rgb(255,255,255); fill-rule: nonzero; opacity: 1;" transform=" translate(0, 0)" d="M -27.08559 -27.08559 L 27.08559 -27.08559 L 27.08559 27.08559 L -27.08559 27.08559 z" stroke-linecap="round"/>
  </g>
  <g transform="matrix(4.632987022399902, 0, 0, 3.3422000408172607, 234.1527557373047, 385.67584228515636)" id="oggrfvMMjAKTTwpYE3Sir" style="">
    <path style="stroke: rgb(172,27,114); stroke-width: 0; stroke-dasharray: none; stroke-linecap: butt; stroke-dashoffset: 0; stroke-linejoin: miter; stroke-miterlimit: 4; fill: rgb(255,255,255); fill-rule: nonzero; opacity: 1;" transform=" translate(0, 0)" d="M -27.08559 -12.231 C -27.08559 -20.43496 -22.28788 -27.08559 -16.36961 -27.08559 L 16.36961 -27.08559 L 16.36961 -27.08559 C 22.28788 -27.08559 27.085590000000003 -20.43496 27.085590000000003 -12.231 L 27.085590000000003 12.231 L 27.085590000000003 12.231 C 27.085590000000003 20.43496 22.28788 27.08559 16.36961 27.08559 L -16.36961 27.08559 L -16.36961 27.08559 C -22.28788 27.08559 -27.085590000000003 20.43496 -27.085590000000003 12.231 z" stroke-linecap="round"/>
  </g>
  <g transform="matrix(1.0777360200881958, 0, 0, 2.1411890983581543, 55.56886291503906, 415.584930419922)" id="JntIhKVgEU8Wo9f-A5B5m" style="">
    <path style="stroke: rgb(0,0,0); stroke-width: 0; stroke-dasharray: none; stroke-linecap: butt; stroke-dashoffset: 0; stroke-linejoin: miter; stroke-miterlimit: 4; fill: rgb(255,255,255); fill-rule: nonzero; opacity: 1;" transform=" translate(0, 0)" d="M -13.91133 -18.43043 L 5.786200000000001 -18.43043 C 5.786200000000001 -18.43043 13.411660000000001 -19.92736 13.75759 -10.459040000000002 C 14.10352 -0.9907200000000014 13.75759 10.326549999999997 13.75759 10.326549999999997 C 13.75759 10.326549999999997 15.07338 18.88966 5.7862 18.504199999999997 C -3.5009799999999993 18.11874 -13.91133 18.504199999999997 -13.91133 18.504199999999997 z" stroke-linecap="round"/>
  </g>
  <g transform="matrix(1.7424349784851076, 0, 0, 6.589990139007568, 482.5122985839844, 395.0208740234376)" id="fOkSKFeN9CaHlhH0GZQ3V" style="">
    <path style="stroke: rgb(240,101,55); stroke-width: 0; stroke-dasharray: none; stroke-linecap: butt; stroke-dashoffset: 0; stroke-linejoin: miter; stroke-miterlimit: 4; fill: rgb(255,255,255); fill-rule: nonzero; opacity: 1;" transform=" translate(0, 0)" d="M -10.37344 -10.37344 L 10.37345 -10.37344 L 10.37345 10.37345 L -10.37344 10.37345 z" stroke-linecap="round"/>
  </g>
  <g transform="matrix(0.5703955292701721, 0, 0, 0.5703955292701721, 165.6932373046875, 251.38720703125003)" id="KJO3mnMYC-jbjXWu3Xqk3">
    <path style="stroke: rgb(255,255,255); stroke-width: 1; stroke-dasharray: none; stroke-linecap: butt; stroke-dashoffset: 0; stroke-linejoin: miter; stroke-miterlimit: 4; fill: rgb(255,255,255); fill-rule: nonzero; opacity: 1;" transform=" translate(0, 0)" d="M 0 0" stroke-linecap="round"/>
  </g>
</svg>