<?xml version="1.0" encoding="utf-8"?>
<svg viewBox="0 0 500 500" xmlns="http://www.w3.org/2000/svg">
  <g transform="matrix(3.5193300247192387, 0, 0, 3.5193300247192387, 246.93786621093756, 179.91519165039062)" id="5vOC-IW61OMOE2W5ETTMk" style="">
    <path style="stroke: rgb(0, 0, 0); stroke-width: 0; stroke-dasharray: none; stroke-linecap: butt; stroke-dashoffset: 0; stroke-linejoin: miter; stroke-miterlimit: 4; fill-rule: nonzero; opacity: 1; fill: rgb(128, 128, 128);" transform=" translate(0, 0)" d="M -41.73643 4.67598 L -20.86491 29.46058 L 23.94837 19.70954 L 41.73644 -7.88382 L 6.520990000000005 -29.46058 L -23.769469999999995 -29.46058 z" stroke-linecap="round"/>
  </g>
  <g transform="matrix(3.5193300247192387, 0, 0, 3.5193300247192387, 147.16468811035162, 125.14341735839845)" id="FcNrzdrZuCBp_wJnahC6V" style="">
    <path style="stroke: rgb(126, 47, 173); stroke-width: 0; stroke-dasharray: none; stroke-linecap: butt; stroke-dashoffset: 0; stroke-linejoin: miter; stroke-miterlimit: 4; fill-rule: nonzero; opacity: 1; fill: rgb(128, 128, 128);" transform=" translate(0, 0)" d="M 0 -27.08559 C 14.95125 -27.08559 27.08559 -14.95125 27.08559 0 C 27.08559 14.95125 14.95125 27.08559 0 27.08559 C -14.95125 27.08559 -27.08559 14.95125 -27.08559 0 C -27.08559 -14.95125 -14.95125 -27.08559 0 -27.08559 z" stroke-linecap="round"/>
  </g>
  <g transform="matrix(3.5193300247192387, 0, 0, 3.5193300247192387, 350.8713684082032, 101.0483856201172)" id="fHjpB1nK1d5RBUVIb_mwp" style="">
    <path style="stroke: rgb(120, 115, 146); stroke-width: 0; stroke-dasharray: none; stroke-linecap: butt; stroke-dashoffset: 0; stroke-linejoin: miter; stroke-miterlimit: 4; fill-rule: nonzero; opacity: 1; fill: rgb(128, 128, 128);" transform=" translate(-27.0855904659, -27.0855904659)" d="M 27.085590465872155 0 C 42.03683640303359 0 54.17118093174431 12.134344528710724 54.17118093174431 27.085590465872155 C 54.17118093174431 42.03683640303359 42.03683640303359 54.17118093174431 27.085590465872155 54.17118093174431 C 12.134344528710724 54.17118093174431 0 42.03683640303359 0 27.085590465872155 C 0 12.134344528710724 12.134344528710724 0 27.085590465872155 0 Z" stroke-linecap="round"/>
  </g>
  <g transform="matrix(1.5857429504394533, 0, 0, 1.5857429504394533, 147.16468811035162, 125.14341735839845)" id="RbrjHxBFLh0z_UKzo3j36" style="">
    <path style="stroke: rgb(164, 239, 204); stroke-width: 0; stroke-dasharray: none; stroke-linecap: butt; stroke-dashoffset: 0; stroke-linejoin: miter; stroke-miterlimit: 4; fill-rule: nonzero; opacity: 1; fill: rgb(128, 128, 128);" transform=" translate(0, 0)" d="M 0 -27.08559 C 14.95125 -27.08559 27.08559 -14.95125 27.08559 0 C 27.08559 14.95125 14.95125 27.08559 0 27.08559 C -14.95125 27.08559 -27.08559 14.95125 -27.08559 0 C -27.08559 -14.95125 -14.95125 -27.08559 0 -27.08559 z" stroke-linecap="round"/>
  </g>
  <g transform="matrix(1.5857429504394533, 0, 0, 1.5857429504394533, 350.8713684082032, 101.0483856201172)" id="Bzx03qWsp5-p50D___wb_" style="">
    <path style="stroke: rgb(164, 239, 204); stroke-width: 0; stroke-dasharray: none; stroke-linecap: butt; stroke-dashoffset: 0; stroke-linejoin: miter; stroke-miterlimit: 4; fill-rule: nonzero; opacity: 1; fill: rgb(128, 128, 128);" transform=" translate(0, 0)" d="M 0 -27.08559 C 14.95125 -27.08559 27.08559 -14.95125 27.08559 0 C 27.08559 14.95125 14.95125 27.08559 0 27.08559 C -14.95125 27.08559 -27.08559 14.95125 -27.08559 0 C -27.08559 -14.95125 -14.95125 -27.08559 0 -27.08559 z" stroke-linecap="round"/>
  </g>
  <g transform="matrix(0, -1.4976410865783691, 1.4976410865783691, 0, 402.1749877929688, 304.31198120117193)" id="i4lrDfEnGyNMYsA9581ya" style="">
    <path style="stroke: none; stroke-width: 1; stroke-dasharray: none; stroke-linecap: butt; stroke-dashoffset: 0; stroke-linejoin: miter; stroke-miterlimit: 4; fill-rule: nonzero; opacity: 1; fill: rgb(128, 128, 128);" transform=" translate(-40, -40)" d="M 60 40 L 80 80 L 40 80 L 0 80 L 20 40 L 40 0 L 60 40 z" stroke-linecap="round"/>
  </g>
  <g transform="matrix(0.6744190454483032, 0, 0, 1.115251064300537, 383.90795898437506, 304.31198120117193)" id="srKoOPGeUomH2XN-bsSJc" style="">
    <path style="stroke: rgb(160, 166, 62); stroke-width: 0; stroke-dasharray: none; stroke-linecap: butt; stroke-dashoffset: 0; stroke-linejoin: miter; stroke-miterlimit: 4; fill-rule: nonzero; opacity: 1; fill: rgb(128, 128, 128);" transform=" translate(0, 0)" d="M -27.08559 -27.08559 L 27.08559 -27.08559 L 27.08559 27.08559 L -27.08559 27.08559 z" stroke-linecap="round"/>
  </g>
  <g transform="matrix(0.789336919784546, 0, 0, 0.830569088459015, 130.70455932617193, 322.55783081054693)" id="nM4iRLQ1AGK_NxH14WRfC" style="">
    <path style="stroke: rgb(160, 166, 62); stroke-width: 0; stroke-dasharray: none; stroke-linecap: butt; stroke-dashoffset: 0; stroke-linejoin: miter; stroke-miterlimit: 4; fill-rule: nonzero; opacity: 1; fill: rgb(128, 128, 128);" transform=" translate(0, 0)" d="M -27.08559 -27.08559 L 27.08559 -27.08559 L 27.08559 27.08559 L -27.08559 27.08559 z" stroke-linecap="round"/>
  </g>
  <g transform="matrix(4.1107001304626465, 0, 0, 2.9654269218444824, 258.5054016113282, 296.0204467773438)" id="oggrfvMMjAKTTwpYE3Sir" style="">
    <path style="stroke: rgb(172, 27, 114); stroke-width: 0; stroke-dasharray: none; stroke-linecap: butt; stroke-dashoffset: 0; stroke-linejoin: miter; stroke-miterlimit: 4; fill-rule: nonzero; opacity: 1; fill: rgb(128, 128, 128);" transform=" translate(0, 0)" d="M -27.08559 -12.231 C -27.08559 -20.43496 -22.28788 -27.08559 -16.36961 -27.08559 L 16.36961 -27.08559 L 16.36961 -27.08559 C 22.28788 -27.08559 27.085590000000003 -20.43496 27.085590000000003 -12.231 L 27.085590000000003 12.231 L 27.085590000000003 12.231 C 27.085590000000003 20.43496 22.28788 27.08559 16.36961 27.08559 L -16.36961 27.08559 L -16.36961 27.08559 C -22.28788 27.08559 -27.085590000000003 20.43496 -27.085590000000003 12.231 z" stroke-linecap="round"/>
  </g>
  <g transform="matrix(0.956241011619568, 0, 0, 1.899807929992676, 100.05364227294928, 322.55783081054693)" id="JntIhKVgEU8Wo9f-A5B5m" style="">
    <path style="stroke: rgb(0, 0, 0); stroke-width: 0; stroke-dasharray: none; stroke-linecap: butt; stroke-dashoffset: 0; stroke-linejoin: miter; stroke-miterlimit: 4; fill-rule: nonzero; opacity: 1; fill: rgb(128, 128, 128);" transform=" translate(0, 0)" d="M -13.91133 -18.43043 L 5.786200000000001 -18.43043 C 5.786200000000001 -18.43043 13.411660000000001 -19.92736 13.75759 -10.459040000000002 C 14.10352 -0.9907200000000014 13.75759 10.326549999999997 13.75759 10.326549999999997 C 13.75759 10.326549999999997 15.07338 18.88966 5.7862 18.504199999999997 C -3.5009799999999993 18.11874 -13.91133 18.504199999999997 -13.91133 18.504199999999997 z" stroke-linecap="round"/>
  </g>
  <g transform="matrix(1.5460069179534912, 0, 0, 5.847085952758789, 478.86682128906256, 304.31198120117193)" id="fOkSKFeN9CaHlhH0GZQ3V" style="">
    <path style="stroke: rgb(240, 101, 55); stroke-width: 0; stroke-dasharray: none; stroke-linecap: butt; stroke-dashoffset: 0; stroke-linejoin: miter; stroke-miterlimit: 4; fill-rule: nonzero; opacity: 1; fill: rgb(128, 128, 128);" transform=" translate(0, 0)" d="M -10.37344 -10.37344 L 10.37345 -10.37344 L 10.37345 10.37345 L -10.37344 10.37345 z" stroke-linecap="round"/>
  </g>
  <g transform="matrix(0.5703954696655273, 0, 0, 0.5703954696655273, 165.69323730468756, 251.38720703125006)" id="KJO3mnMYC-jbjXWu3Xqk3">
    <path style="stroke: rgb(255,255,255); stroke-width: 1; stroke-dasharray: none; stroke-linecap: butt; stroke-dashoffset: 0; stroke-linejoin: miter; stroke-miterlimit: 4; fill: rgb(255,255,255); fill-rule: nonzero; opacity: 1;" transform=" translate(0, 0)" d="M 0 0" stroke-linecap="round"/>
  </g>
  <path style="stroke: rgb(0, 0, 0); fill: rgb(255, 255, 255); transform-origin: 226.001px 232.026px;" d="M 77.397 285.548 L 78.421 172.076 L 206.589 172.343 L 206.373 132.201 L 374.604 226.645 L 210.566 331.85 L 210.46 282.859 L 77.397 285.548 Z"/>
  <path style="stroke: rgb(0, 0, 0); fill: rgb(255, 255, 255); transform-origin: 274.454px 360.828px;" d="M 13.472 388.474 L 169.268 297.907 L 168.317 343.878 L 285.785 344.096 L 288.215 444.646 L 166.454 442.962 L 165.978 489.438 L 13.472 388.474 Z"/>
</svg>